<svg id="Logo" xmlns="http://www.w3.org/2000/svg" xmlns:xlink="http://www.w3.org/1999/xlink" viewBox="0 0 1050.35 328.53">
  <defs>
    <style>
      .cls-1 {
        fill: #234922;
      }

      .cls-2 {
        fill: #231f20;
      }

      .cls-3 {
        fill: url(#linear-gradient);
      }

      .cls-4 {
        fill: url(#linear-gradient-2);
      }

      .cls-5 {
        fill: url(#linear-gradient-3);
      }

      .cls-6 {
        fill: url(#linear-gradient-4);
      }

      .cls-7 {
        fill: url(#linear-gradient-5);
      }

      .cls-8 {
        fill: url(#linear-gradient-6);
      }

      .cls-9 {
        fill: url(#linear-gradient-7);
      }
    </style>
    <linearGradient id="linear-gradient" x1="35.24" y1="226.41" x2="85.58" y2="226.41" gradientUnits="userSpaceOnUse">
      <stop offset="0" stop-color="#01003d"/>
      <stop offset="1" stop-color="#5d90be"/>
    </linearGradient>
    <linearGradient id="linear-gradient-2" x1="212.76" y1="301.41" x2="212.76" y2="108.44" gradientUnits="userSpaceOnUse">
      <stop offset="0" stop-color="#01003d"/>
      <stop offset="0.13" stop-color="#050743"/>
      <stop offset="0.31" stop-color="#111954"/>
      <stop offset="0.52" stop-color="#24376f"/>
      <stop offset="0.75" stop-color="#3f6196"/>
      <stop offset="1" stop-color="#6096c6"/>
    </linearGradient>
    <linearGradient id="linear-gradient-3" x1="203.92" y1="5.05" x2="203.92" y2="105.4" xlink:href="#linear-gradient"/>
    <linearGradient id="linear-gradient-4" x1="47.45" y1="59.6" x2="127.32" y2="139.48" xlink:href="#linear-gradient"/>
    <linearGradient id="linear-gradient-5" x1="157.61" y1="83.53" x2="334.97" y2="83.53" gradientUnits="userSpaceOnUse">
      <stop offset="0" stop-color="#6cbe45"/>
      <stop offset="0.13" stop-color="#61ab42"/>
      <stop offset="0.53" stop-color="#427438"/>
      <stop offset="0.84" stop-color="#2e5232"/>
      <stop offset="1" stop-color="#274530"/>
    </linearGradient>
    <linearGradient id="linear-gradient-6" x1="63.7" y1="238.91" x2="152.47" y2="238.91" gradientTransform="translate(-35.56 22.28) rotate(-11.19)" xlink:href="#linear-gradient-5"/>
    <linearGradient id="linear-gradient-7" y1="232.42" x2="187.63" y2="232.42" gradientUnits="userSpaceOnUse">
      <stop offset="0" stop-color="#6cbe45"/>
      <stop offset="0.25" stop-color="#4f9138"/>
      <stop offset="0.6" stop-color="#2c5a27"/>
      <stop offset="0.86" stop-color="#16381d"/>
      <stop offset="1" stop-color="#0e2b19"/>
    </linearGradient>
  </defs>
  <g id="Typo">
    <g id="LushWorld">
      <path class="cls-1" d="M358.16,81.55l16.64,7.79v62.55h38.33L411.22,167H358.16Z" transform="translate(0)"/>
      <path class="cls-2" d="M437.51,89.27V132.5c0,16.41,7.6,21.27,15.89,21.27,9.52,0,15.5-5.75,15.5-21.27V81.57l16.65,7.22v42.8c0,29.23-15.4,36.67-32.37,36.67-17.37,0-32.33-7.77-32.33-36.32V81.57Z" transform="translate(0)"/>
      <path class="cls-2" d="M513.39,142c1.76,8.58,7.3,12.34,16.2,12.34s12.69-3.89,12.69-10.15c0-7-3.71-10-16.87-13.38-20.94-5.46-26.12-13.92-26.12-25.46,0-14.9,10-25,28.25-25,20.43,0,28.56,12.2,29.67,24.7H540.44c-.8-5.26-3.42-11-13.34-11-6.75,0-10.82,3.1-10.82,9.17s3.26,8.35,15.69,11.56c22.38,5.86,27.29,15.11,27.29,27.16,0,15.61-10.63,26.31-31,26.31-19.53,0-29.82-10.68-31.66-26.26Z" transform="translate(0)"/>
      <path class="cls-2" d="M571.43,81.57l16.64,7.27v26.07H619V81.57l16.64,7.66v77.82H619v-37H588.07v37H571.43Z" transform="translate(0)"/>
      <path class="cls-1" d="M665.79,167.05,646.21,81.57,664,89.25c7.21,39.28,10.49,49,11.39,58.42h.12c2.92-15.7,10.35-45.45,14.84-66.1l15,7.53c4,16.4,11.73,42,14.24,57.68h.11c2.55-18.82,10.11-51.93,12.81-65.21l12.17,7.91-16.84,77.57H710.5c-4-18.93-10.81-46.55-13.53-61.19h-.11c-2.79,15.21-9.74,44-13.84,61.19Z" transform="translate(0)"/>
      <path class="cls-2" d="M829.3,124c0,23.79-12.86,44.27-37.85,44.27-24.14,0-36.78-19.49-36.78-44,0-24.88,14-44,37.86-44C815,80.33,829.3,97.85,829.3,124Zm-57.45-.08c0,16.69,6.59,29.31,20.23,29.31,14.8,0,20-13.76,20-29,0-16.17-6-28.88-20.31-28.88C777.92,95.37,771.85,107.3,771.85,123.94Z" transform="translate(0)"/>
      <path class="cls-2" d="M860,132.84v34.21H843.73V81.57h33.81c16.78,0,25.81,10.27,25.81,23.47,0,11.47-5.62,17.68-11.18,20.22,3.81,1.57,9.56,6,9.56,21.28v4.22c0,5.75,0,12.29,1.1,16.29H887.07c-1.36-3.72-1.61-10.11-1.61-19.19v-1.25c0-9.35-2.13-13.77-14.53-13.77Zm0-14.71h14c9.11,0,12.62-3.85,12.62-11,0-6.95-4.09-10.85-12.22-10.85H860Z" transform="translate(0)"/>
      <path class="cls-2" d="M918.06,81.57l16.63,7.2V151.9H973l-1.9,15.15H918.06Z" transform="translate(0)"/>
      <path class="cls-2" d="M982.79,81.57h30.5c22.41,0,37.06,16.4,37.06,41.67,0,24.93-14.21,43.81-37.76,43.81h-29.8Zm16.63,70.55h12.48c14.75,0,21.27-12.19,21.27-28.84,0-14-6.11-26.78-21.17-26.78H999.42Z" transform="translate(0)"/>
    </g>
    <g id="Designs">
      <path class="cls-1" d="M355.24,189.07h23c16.9,0,27.95,11.24,27.95,28.57,0,17.09-10.72,30-28.47,30H355.24Zm12.54,48.37h9.41c11.12,0,16-8.36,16-19.77,0-9.58-4.6-18.37-16-18.37h-9.49Z" transform="translate(0)"/>
      <path class="cls-1" d="M457,222.4H429.26v14.89h22.38l6.74,10.38H417.09v-58.6h34.69l6.45,10.38h-29V212h22.38Z" transform="translate(0)"/>
      <path class="cls-1" d="M478.26,230.5c1.32,5.88,5.5,8.46,12.22,8.46s9.56-2.67,9.56-7c0-4.77-2.8-6.84-12.72-9.17-15.79-3.75-19.69-9.55-19.69-17.46,0-10.22,7.56-17.15,21.3-17.15,15.4,0,21.54,8.36,22.37,16.93H498.66c-.61-3.6-2.58-7.52-10.06-7.52-5.09,0-8.16,2.13-8.16,6.29s2.46,5.73,11.83,7.92c16.88,4,20.58,10.36,20.58,18.62,0,10.7-8,18-23.35,18-14.73,0-22.49-7.32-23.88-18Z" transform="translate(0)"/>
      <path class="cls-1" d="M686.36,230.57c1.32,5.89,5.5,8.47,12.21,8.47s9.57-2.68,9.57-7c0-4.77-2.8-6.84-12.72-9.17-15.79-3.74-19.7-9.54-19.7-17.46,0-10.21,7.57-17.15,21.3-17.15,15.41,0,21.54,8.37,22.38,16.94H706.76c-.61-3.61-2.58-7.52-10.06-7.52-5.09,0-8.17,2.12-8.17,6.28s2.47,5.73,11.84,7.93c16.87,4,20.57,10.35,20.57,18.62,0,10.7-8,18-23.35,18-14.73,0-22.48-7.32-23.87-18Z" transform="translate(0)"/>
      <path class="cls-1" d="M534.57,194.9v52.77H522v-58.6Z" transform="translate(0)"/>
      <path class="cls-1" d="M598.76,247.67h-9.2a33.41,33.41,0,0,1-1-5.77c-3.21,4.38-8.88,6.75-16.94,6.75-16.84,0-26.25-12.85-26.25-29.54,0-17.62,10.15-30.89,28.43-30.89,14.93,0,23.72,8.51,25.13,18.5H586.42c-1.19-3.92-4.26-8.57-12.74-8.57-11.92,0-15.31,10.07-15.31,20.4,0,10.09,3.88,20,15.38,20,10.73,0,12.7-7.52,12.7-12.77v-.53H573.73V214.89h25Z" transform="translate(0)"/>
      <path class="cls-1" d="M611.47,247.67v-58.6H627c7.25,13.16,20.64,36.89,23.31,43.28h.15c-.65-6.12-.64-16.3-.64-25.91V189.07h11.37v58.6H646.46c-6.23-11.45-21.07-38.71-23.94-45.48h-.16c.42,5.13.56,17.16.56,27.66v17.82Z" transform="translate(0)"/>
    </g>
    <polygon id="line" class="cls-1" points="1050.35 228.62 741.9 228.62 726.64 208.1 1032.67 208.1 1050.35 228.62"/>
  </g>
  <g id="Logo-2" data-name="Logo">
    <g id="ground">
      <path class="cls-3" d="M48.58,191.28a4.22,4.22,0,0,1,2.11-.51h.12c1.74,0,2.08.5,2.31,1.3.27,1,2.69,2.48,3.37,1.66s3.68-2.59,4.64-2.18,1.23,1.64,1.23,3-.55,3.28,0,2,.27-3,2-2.74,4.09,5.19,5,4.79,3.27-2,3,0a12.6,12.6,0,0,0,0,5c.39,1.09,1.75,2.18,1.62,3.54a3.67,3.67,0,0,0,1.5,3.83c1.64,1.36,3.55,1.77,2.73,4.64s-1,4.91-2,5.87-2.87,3.27-3.82,3.27-1.64,1.91.14,2.46,2.73.82,3.27,0,1.5-1.15,1.78.52,2.09,2.36.87,3-1.88,1.87-.64,1.93,3.7.16,4.75,2.06,1,3.61,2,4.94.76-.48.95,1.33-1.61,5.12-2.85,6.07-6.36,2.47-7.41,3.71-6.07,7.69-8.07,10.06h0a3.06,3.06,0,0,1-4.36.35c-6.24-5.45-24-20.19-27.38-30.62a3.78,3.78,0,0,1-.23-1.72c.46-3,2-13.19,3.1-15.2a10.9,10.9,0,0,1,3.23-4.18c1-.76-.28-2.57.67-3.52a16.47,16.47,0,0,1,4.84-3.23c1.9-.76,5.32-2.84,5.79-5.88s-2.53-3.08-3.53-2.87C45.65,194.88,47.35,192,48.58,191.28Z" transform="translate(0)"/>
      <path class="cls-4" d="M302.41,109.06a21,21,0,0,1-5.72,1.39c-2.17,0-3.94-3.36-6.9-1.39s-6.11,2.77-7.49,1.39-2.76.69-2.76.69-3-3-4.34-1.35-4.14,5.39-5.33,5.19-5.72-.38-6.31,0-2-.39-6.11,0-9.47-.21-11.44,1.17-9.66,3.36-9.66,3.36,5.72-4.57,4.53-5.54-4.93,1.2-7.29.8-4.93-.39-6.51,1.19-8.08,1-10.25,2.56a20.35,20.35,0,0,0-4.15,4.73s-6.11.79-5.71,1.58,1.38,2.56,2.95,2.37.4,2,.4,2a14.32,14.32,0,0,0-4.34,0c-1.77.39-5.52,1-5.52,1s-.2,3.54,2.76,3.74,3.15,2,3.15,2-3.35-1-3.94,0-3.75,4.15-3.75,3.16V134.7s1.19-4.93,0-5.32-6.11,1.57-4.93,4.14-6.31,1.58-7.49,3-11.12,6.31-11.12,6.31l-3.67,2.56h-3.35a45.85,45.85,0,0,1-4.74-1c-3.15-.79-11.43.2-12.22-1s-3.75-.4-7.89,2-8.48,6.11-8.48,8.28-.2,4-2.37,4.93-5.71,2.17-3.35,4.93,3.35,3.55,5.72,1.19,4.54,2.36,4.54,2.36,2.36,4,2.95,0,.8-4.34.32-5.36,2.05-1,2.05-1-3.86-2.84-1.73-4.33,3.7-.95,3.62-2.21-1.26-2.21,1-3.55,3.47-1.34,3.15-.47-4.33,3-2.92,5.91,3.16,2.05,6.31.4,2.76,0,2.76,0a2.92,2.92,0,0,0-.79,1.81c.08.87-2.68-1.42-3.78.16s-.08,4-.08,4-2.45-1.57-2.92,0,.79,3.06.4,3.74-.56,1.47-2.45,1.31-4,1.34-4.09,2.2-1.9-.86-3.24,0-4.8,2.53-5.2,3.79-5.28,5.63-6,5.69-5,2.5-4.25,3.53,4.73,3.07,4.65,3.78.71,1.18.39,2.05-4.13,2.44-5.14,2.36-2.66-.23-2.34,1.26.78,7.17,1.81,7.65,2.21-.4,2.91.63,1.9.86,2.92-.4,2-.39,2.6-2.2-.31-4.73.16-5.13,2.44-2.67,2.36-3.23-.23-1.57.79-1.81,1.5.16,2.76-1,.92-2.77,6.85,1.89c5.63,4.41,5.52,3.78,5.6,3.31a3.51,3.51,0,0,0-1.18-3c-1.19-.94-7.1-4.88-7.1-4.88s.48-1.26,1.19-1.11,2.91.63,3.62,1.27,3.15,2.91,3.94,2.67,1.1,2.53,1.58,3.31,2,3.08,3.23,3.39,1.5-2.36,1-3.39.71-1.81.71-2.68,1.58-.39,1.58-.39,2.05,5.36,3.47,5.44a4.29,4.29,0,0,0,2.67-1,9.77,9.77,0,0,0,3,.32,23.19,23.19,0,0,0,2.36-1.34s2.21,6.3.16,8.19-3.39,3.87-10.95,2-4.42.77-4.42.77l-.78,1.68s-5.2.47-5.6-.48-1.26-1.41-2.76-1.49-2.28.08-2.44-1.89-.87-3.71-1.73-3.63-1.74,1.58-3.94,1.81a8,8,0,0,0-5.52,2.45,8.76,8.76,0,0,1-6.93,2.6c-3.08-.08-3.79,6.38-3.47,7.17a24.82,24.82,0,0,1,.41,4.17s-6,9.51-4.06,13.55.85,4.92,1.91,8.41,3.83,9.24,7.44,11.15,6.17,3,7.87,2.13,3,.21,4.47-1.07,2.12-4.25,4.46-3.82,4.47,1.7,5.53,1.27,3.19,7.87,4.89,10.21,6.38,7.23,7,10.42-.64,12.62,1.7,14,4,5.81,5.1,8.79,4,3.61,5.1,6.16.2,7.68,3.68,6.35,2.65-1.49,4.8-1.08,6.22-6.71,6.8-9.11-.25-6.71-.25-6.71,2.23-.66,2.4-2.07-2.57-6.47-2.73-6.71a7.36,7.36,0,0,1,1.82-4.4c1.24-1,4.64-3.56,2.82-6.38s-6.22-10.1-5.72-12.84,1.82-8.2,3-8,1.82,2.73,4.23-1.08,6.21-16.49,4.31-16.82-5.88,4.66-7.21,3.15c-1.19-1.35-2.32-2.16,2.48-6.88s4-2.57,4.15-4.23,3.72-2,3.72-3.81,1.83-3,2.08-4.64.58-2.48-1-3.39-3.35-3.52-4.22-3.15-2.08,4.8-2.82,4.31-5.64-4.73-6.05-6.22-4.31-2.57-4.81-2.82.42-.82,1.16-1.4,2.49,2.9,4.23,1.57,3.4,5.63,5.22,5.05,2.49-2.4,3.15-2.32,2.4,2.32,4.89,1.91,5-1.82,5.47-1.24,2.48,2.23,3.23,1.82-.91,1,.08,1.25a3.48,3.48,0,0,0,2.15-.42s-1.74,2.24-.16,2.82,2.15-1.74,2.15-1.74,6.63,21.29,10.28,18.89c2.56-1.41,1.07-10.69.82-11.6s5.56-8.79,5.56-11.35-1.33-4.4.16-4.48,1.33,3.32,1.91,3.56,1-2.15,1-2.15l2.4,3.23s2.24,1.08,2.41,2.32a2,2,0,0,0,2.4,2c1.41-.25,4.56,3.56,5,6.46s.08,6.47,1.66,7.46-.17,2,3.06,4.89a12.2,12.2,0,0,0,4.34,2.72.49.49,0,0,0,.61-.64c-.54-1.54-1.85-4.83-3.54-6.14-2.23-1.74-4.14-4.14-4.31-5.14s-1.74-4.56-1.07-5.8,1.9.91,3.06,1.66,2.9,3,3,1.57a8.78,8.78,0,0,1,.74-2.81s2.82,3.39,3.15.41a10.49,10.49,0,0,0-4.23-9.2c-3.06-2.07-3.39-4.39-1.49-5s3.9-.58,5-1.49a5.09,5.09,0,0,0,1.25-3s2,.74,3-.66,4.89-10,3.65-12.22a6.54,6.54,0,0,0-3-2.86,25.57,25.57,0,0,0,.91-2.91c-.07-1.31-3.23-1.07-3.23-1.07s4.06-3.15,2.9-3.9-3.23-.33-5.05.67-3.65-.17-2.65-1.74.16-.37,2.07-1.18a9.77,9.77,0,0,0,3.23-2.39l.45,1.27s1.66,2,2.78-.11c.61-1.14.08,1.66,1.41,2.82s1.91,5.22,3.48,4.39,3.07-2.73,1.91-4.47-2.57-3.73-2.57-3.73,4.22-4.14,4.22-5.88-2.57.66,0,0,6.21-8.89,6.63-10.61c.3-1.23-.58-7.12-1.32-8s-2.32-.91-3.73-.16-3.81-.66-2.16-2.24,6.63-7.54,6.63-7.54,5.8-1.07,6.88-2.15.08,1.08,1.41.74,3.39-6,5.46-6,2,1.57,3.07,1.16l1.08-.42s-5.39,6-3.57,10.69,1.91,7,3.07,5.22,4.56-7.87,4.72-8.86.91-.5-.16-1.83-1.08-3.06,1.32-3.39,3.9-.5,3.9-.5S306.74,118.55,302.41,109.06Z" transform="translate(0)"/>
      <path class="cls-5" d="M146.42,5.05s18.64,3.15,24.7,7.64,20.44,14.37,20.44,14.37,3.82,3.6,1.57,4.5,2,3.37,6.07,3.14,11.9,7.64,15.72,8.09,9,1.34,9,1.34v2.7l3.82-1.57s3.37,6.29,5.62,5.84,8.53,3.59,9.43,1.57S256,62.1,256,62.1s7.86,4.49,7.41,7.64.9,2.47,4.05,4.27,11.9,2.69,10.1,4.71-20.44-2-20,0,.45,4.49-1.12,4.94,2.47,4.72.45,5.84-11.23,3.6-11.23,3.6l.67,5.61s-13.25,1.12-18.86-2.25-7.64-.67-12.8-.22-7.87-3.14-10.34-1.12-12.57,11.68-12.57,10.1-2.92-6.28-4-7-4.71-5.16-3.59-9.43,4.94-3.37,4.27-5.39-4-4.27-2-7.19,6.28-3.14,7.41-1.57,2.92-6.06,2.92-7-3.37,2.92-4.72,2.69-4-4.27-.9-4.49a6.2,6.2,0,0,0,4.49-2h-4.49s3.6-11.46,1.35-13.93-16.93-9-19.36-15.49-1.53-6.74-1.53-6.74l14.83,5.61-2.25-3.81,3.37-.9s-13.25-.45-16.62-2.92a4.74,4.74,0,0,0-6.07,0s-3.36,1.12-4.71.22-.45,2-2.25,1.57a5.65,5.65,0,0,0-3.82.9s-2.24,2.47-4.49.9a28.15,28.15,0,0,0-5.39-3.14c-3.14-1.58-10.33-6.74-10.33-6.74V14.25S130,13.59,130,12s.9-4.94,6.07.45,3.37,7.18,5.16,7.41,7,4.27,7,4.27-8.08-6.74-4-7.64a53,53,0,0,0,7.41-2.26l-1.34-2.91,4.49,2.91Z" transform="translate(0)"/>
      <path class="cls-6" d="M108.77,23.28c1.73,3.59-3.73,4.21-4.37,2.91s-2-3.72-3.25-3.72-1,3.72,6.81,8.26,6.16,2.11,6.16,2.11-2.43-2.6-1.46-2.76,3.24-1.29,3.08,1.14-3.41,5.34-1.79,5.18,6.48-3.24,6.48-3.24-3.24-3.24-2.26-4.54,5.34-3.88,5.34-4.86.81-4.69,4.38-1.29,5.83,6.15,1,5.51c-2.59-1.54-5-1.95-4.86.16s1.94,3.08,1.13,4.37-1.46,2.61-.16,3.9a2.43,2.43,0,0,0,2.2.51.86.86,0,0,1,1,1.1c-.68,2.13-1.51,5.62.41,5.51,2.75-.16,5-2.27,4.21-3.57s2.43,0,2.43,0-.65-3.07-2.43-3.24S130,35.1,130.32,34a4.65,4.65,0,0,0-.31-2.24,1,1,0,0,1,1.11-1.35,3,3,0,0,0,1.95-.38c1.3-.89,4.54-1.54,4.7.89s-2.75,1.78-2.11,2.92,3.89-1.3,5.51-.81,3.89.81,3.89,2.1.32,4.22,1.94,4-2.1-3.4,0-3.24,5.68,4.38,7.13,8.59,2.92,2.27,3.41,3.4.48,3.57,3.88,5.84S159,56.33,159.64,58s9.4,10.37,7.45,12-7.77,1.13-7.93-1.14-2.92-2.91-2.43-1,4.37,3.24,2.75,5.51a11.34,11.34,0,0,1-4.37,3.4s-1.46-2.43-2.43-2.27-1.46,2.27-5-4.86a30.29,30.29,0,0,0-4.45-7,1,1,0,0,1,.26-1.57l8.41-4.34s-5.84-7.13-6-8.1a37.75,37.75,0,0,0-1.13-3.72s-5.67-2.43-6.32-1.79,1.68,3,1.25,3.57-1.9-.65-2.39,0,2.27,2.43.65,3.24-4.83-1.14-4,2.75,2.66,10.53,6.54,13S149,75,148.63,76.74s-2.6,4.7-2.6,4.7,2.27,3.08,5,2.59,4.69-3.72,5.34-2.43,3.75,8.81,1.06,11.16-3.22,2.14-2.1,3.86,4.19,5,3.85,7.37.17,6.59-6,6.33-14.65-6.59-18.59-5.74-6.94,1.72-1.8,1.89,8.31,2.34,6.17,3.87-4.71,1.27-3.25,4,6.68,4.2,7,2.66,1.89,3.17-5.4,3.08-9.59-.51-7.62-2.23-2.48-2.91-8-.34-3.51,4.54-6.08,3.6-2.57-2.49-6.85-.51-6.43,8-11.23,9.76S87.68,132,85.19,137s-4.37-4.63-9.59-6.17-4.37-3.17-5.92-2.66-3.59,1-4.54.35,1-.43-3.25.25-8.4,2-10.71,7.37-6.51,11-6.68,14.74,1,10.88,5.22,8.48,6.44-3.42,6.44-3.42,2.69-.94.88,2.83-5,9.48-5,9.48a7.23,7.23,0,0,1,5,4.07c1.81,3.62-3.56,14.7-6,15.06-1.67.25-2.26-13.55-2.26-13.55s-4.34-10.55-4.28-12.5-13-6.78-12.29-16,5.58-10.54,4.37-14.76.75-4.37.15-7.38-1.2-18.83-2-20-.66,15.66-2.59,16.57-1-14.31-1-21.24c0-4.25-1.93-4.91-3.42-4.8a.91.91,0,0,1-.92-1.28l2.68-5.82s26.05-50.27,76.23-69.52a1.12,1.12,0,0,1,1.51,1,8.49,8.49,0,0,0,1.55,5.19" transform="translate(0)"/>
    </g>
    <g id="letter">
      <path class="cls-1" d="M207.1,297.91a5.57,5.57,0,0,1,4.87,1.44c1.22,1.2,2,3.13,2.32,5.77s0,4.72-.88,6.11a6,6,0,0,1-4.55,2.46,12,12,0,0,1-1.56.1c-.51,0-1,0-1.51,0l-1.87-15.14.6-.17c.25-.07.51-.14.8-.2s.58-.13.88-.18Zm1.18,12.48a1.28,1.28,0,0,0,.26,0l.3,0A3.65,3.65,0,0,0,210,310a2.19,2.19,0,0,0,.88-.83,3.86,3.86,0,0,0,.46-1.46,8.62,8.62,0,0,0,0-2.25,8.48,8.48,0,0,0-.52-2.2,4,4,0,0,0-.81-1.33,2.21,2.21,0,0,0-1-.63,3.11,3.11,0,0,0-1.14-.09l-.46.07-.2,0Z" transform="translate(0)"/>
      <path class="cls-1" d="M228.14,303.53l-3,.71.68,2.95,2.62-.61a34.83,34.83,0,0,0,2.11,2.91l-6.78,1.58-3.48-15L225.1,295c.18.27,1.69,1.92,2.58,2.83l-3.88.9.53,2.29,2.16-.43C226.78,301.14,227.78,302.9,228.14,303.53Z" transform="translate(0)"/>
      <path class="cls-1" d="M241,296.38a12.37,12.37,0,0,1,1.4.28,3.81,3.81,0,0,1,1.18.53,3.86,3.86,0,0,1,1,1,7.09,7.09,0,0,1,.8,1.61,6.4,6.4,0,0,1,.4,2,4.29,4.29,0,0,1-.3,1.77,3.85,3.85,0,0,1-1,1.43,5.12,5.12,0,0,1-1.72,1,6.6,6.6,0,0,1-1.75.4,9.24,9.24,0,0,1-1.79-.06,15.42,15.42,0,0,1-.33-1.57c-.08-.57-.15-1.15-.21-1.75a5.44,5.44,0,0,0,2.74-.08,2.07,2.07,0,0,0,1.1-.75,1.3,1.3,0,0,0,0-1.23,1.61,1.61,0,0,0-.29-.52,1.32,1.32,0,0,0-.38-.3,1.7,1.7,0,0,0-.45-.15l-.46-.07-1-.12a5.49,5.49,0,0,1-1.23-.26,4,4,0,0,1-1.08-.58,4.16,4.16,0,0,1-.9-1,6,6,0,0,1-.72-1.44,6.39,6.39,0,0,1-.4-2,4.15,4.15,0,0,1,.27-1.68,3.29,3.29,0,0,1,.89-1.29,4.42,4.42,0,0,1,1.47-.86,5.88,5.88,0,0,1,1.58-.34,10.52,10.52,0,0,1,1.76,0c.11.44.21.94.29,1.49a11.32,11.32,0,0,1,.12,1.61c-.32,0-.69-.1-1.1-.13a3.5,3.5,0,0,0-1.42.24,2.35,2.35,0,0,0-.45.22,1.29,1.29,0,0,0-.32.34,1,1,0,0,0-.16.46,1.56,1.56,0,0,0,.1.61,1.2,1.2,0,0,0,.6.76,3,3,0,0,0,.86.24Z" transform="translate(0)"/>
      <path class="cls-1" d="M259.12,298.8a6.68,6.68,0,0,1-1.37.49l-7-13.57a20.63,20.63,0,0,1,2.56.17l7,12.08A6.71,6.71,0,0,1,259.12,298.8Z" transform="translate(0)"/>
      <path class="cls-1" d="M270.46,281.92c.2-.22.39-.4.56-.56a5.4,5.4,0,0,1,.49-.4,6,6,0,0,1,.57-.35,6.3,6.3,0,0,1,.69-.34l4.51,6.34a6.77,6.77,0,0,1-1.18,1.6,11,11,0,0,1-1.22,1.05,5.07,5.07,0,0,1-2.38,1,5.13,5.13,0,0,1-2.41-.29,7.57,7.57,0,0,1-2.33-1.41,12.94,12.94,0,0,1-2.12-2.37,12.35,12.35,0,0,1-1.54-2.8,8.38,8.38,0,0,1-.59-2.69,5.23,5.23,0,0,1,.46-2.37,4.65,4.65,0,0,1,1.57-1.86,8.13,8.13,0,0,1,1.3-.74,5.66,5.66,0,0,1,1.62-.39,8,8,0,0,1,.8,1.53,14.11,14.11,0,0,1,.46,1.41l-.63.13a5.36,5.36,0,0,0-.52.16,4.68,4.68,0,0,0-.45.2,3.68,3.68,0,0,0-.45.28,2.28,2.28,0,0,0-1,2.13,6.81,6.81,0,0,0,1.43,3.24,6.66,6.66,0,0,0,2.55,2.37,2.31,2.31,0,0,0,2.35-.29,2.49,2.49,0,0,0,.41-.37Z" transform="translate(0)"/>
      <path class="cls-1" d="M273.53,270.53a5.5,5.5,0,0,1,.38-.54,4,4,0,0,1,.38-.43,3.6,3.6,0,0,1,.47-.39c.18-.12.34-.22.47-.29l8.55,3.38-5.84-6c.16-.24.32-.44.46-.62a5.11,5.11,0,0,1,.41-.47,4.45,4.45,0,0,1,.45-.37,3.85,3.85,0,0,1,.56-.36l10.62,10.95a2.66,2.66,0,0,1-.25.42,2.59,2.59,0,0,1-.44.51,3.29,3.29,0,0,1-.57.46,3.78,3.78,0,0,1-.42.24l-8.53-3.34,5.81,6a4.81,4.81,0,0,1-.8,1.05,5.38,5.38,0,0,1-1.08.78Z" transform="translate(0)"/>
      <path class="cls-1" d="M304.32,242q4.08,2,5.34-.65a3.7,3.7,0,0,0,.31-.94,8.72,8.72,0,0,0,.1-1.2,14.33,14.33,0,0,1,3.16.72,7.34,7.34,0,0,1,0,1,4.75,4.75,0,0,1-.14.8,5.33,5.33,0,0,1-.22.71c-.09.23-.19.46-.3.7a4.84,4.84,0,0,1-1.58,1.93,5,5,0,0,1-2.23.88,7.94,7.94,0,0,1-2.72-.12,13.08,13.08,0,0,1-3-1,13.26,13.26,0,0,1-2.7-1.71,8.26,8.26,0,0,1-1.82-2.07,5.2,5.2,0,0,1-.75-2.3,4.61,4.61,0,0,1,.48-2.38A7.17,7.17,0,0,1,299,235a6.13,6.13,0,0,1,1.21-1.15,8.26,8.26,0,0,1,1.43,1q.64.56,1.11,1l-.49.43a4.32,4.32,0,0,0-.37.38c-.11.13-.21.27-.3.4a4,4,0,0,0-.26.46,2.27,2.27,0,0,0,.17,2.34A6.62,6.62,0,0,0,304.32,242Z" transform="translate(0)"/>
      <path class="cls-1" d="M309.3,230.8a15.59,15.59,0,0,1-2.91-1.3,8.06,8.06,0,0,1-2.1-1.69,4.81,4.81,0,0,1-1.08-2,4.18,4.18,0,0,1,.16-2.38,4.11,4.11,0,0,1,1.31-2,4.84,4.84,0,0,1,2.1-1,8.25,8.25,0,0,1,2.69-.06,16.82,16.82,0,0,1,6,2,8.43,8.43,0,0,1,2.07,1.68,4.77,4.77,0,0,1,1,2,4.22,4.22,0,0,1-.18,2.36,4.32,4.32,0,0,1-1.29,2,4.74,4.74,0,0,1-2.07,1,8.09,8.09,0,0,1-2.67.08A15.35,15.35,0,0,1,309.3,230.8Zm2.31-6.82q-4.42-1.48-5.08.46c-.45,1.34.8,2.5,3.74,3.5a9.06,9.06,0,0,0,3.45.63,1.66,1.66,0,0,0,1.59-1.14C315.76,226.12,314.52,225,311.61,224Z" transform="translate(0)"/>
      <path class="cls-1" d="M306.87,212.74c.05-.53.09-1,.12-1.48a10.78,10.78,0,0,1,.22-1.41,7.17,7.17,0,0,1,.62-1.69,3.94,3.94,0,0,1,1.11-1.38,3.88,3.88,0,0,1,1.73-.78,5.72,5.72,0,0,1,2.47.11,6.58,6.58,0,0,1,1.36.44,6.27,6.27,0,0,1,1,.6,5.35,5.35,0,0,1,.73.66,5.08,5.08,0,0,1,.49.66l7-1c0,.27,0,.55-.07.86a7.51,7.51,0,0,1-.14.83c-.05.21-.12.45-.21.73a5.48,5.48,0,0,1-.29.71l-7.32.71-.08-.17a1.8,1.8,0,0,0-.32-.51,4.21,4.21,0,0,0-.6-.59,6,6,0,0,0-.83-.54,4.67,4.67,0,0,0-1-.37,2.33,2.33,0,0,0-1.63.1,1.52,1.52,0,0,0-.72,1,1,1,0,0,0,0,.27.62.62,0,0,0,0,.16l11.92,2.69a5.32,5.32,0,0,1-.63,2.79Z" transform="translate(0)"/>
      <path class="cls-1" d="M309.94,197.52c0-.26,0-.64,0-1.16a13.63,13.63,0,0,1,.14-1.94,8,8,0,0,1,.44-1.7,3.88,3.88,0,0,1,1-1.46,4.16,4.16,0,0,1,1.79-.92,9.22,9.22,0,0,1,5.27.62,4.33,4.33,0,0,1,1.46,1.13,3.39,3.39,0,0,1,.68,1.42,4.69,4.69,0,0,1,.05,1.54c0,.21-.07.41-.12.62a2.3,2.3,0,0,1-.13.43l4.93.67a5.4,5.4,0,0,1,.05.77,6.28,6.28,0,0,1,0,.64,6.74,6.74,0,0,1-.38,1.37Zm7.53-1.83a.87.87,0,0,0,.1-.26c0-.13.06-.26.08-.4a1.43,1.43,0,0,0-.38-1.2,2.48,2.48,0,0,0-1.55-.65,3.63,3.63,0,0,0-1.09,0,1.81,1.81,0,0,0-.75.29,1.23,1.23,0,0,0-.45.51,2.41,2.41,0,0,0-.2.66,1,1,0,0,1,0,.23,2.17,2.17,0,0,0,0,.26Z" transform="translate(0)"/>
    </g>
    <g id="circle_line" data-name="circle line">
      <path class="cls-7" d="M158.41.49A112.18,112.18,0,0,1,175,.15c5.55.23,11.07.79,16.59,1.55a188.09,188.09,0,0,1,32.6,7.72q4,1.35,8,2.85c1.32.48,2.62,1.05,3.92,1.58s2.61,1.1,3.9,1.68a168.91,168.91,0,0,1,15.22,7.63,161.26,161.26,0,0,1,14.45,9.23,169.13,169.13,0,0,1,13.44,10.82,155.69,155.69,0,0,1,12.1,12.4,136.9,136.9,0,0,1,10.47,13.84A130.09,130.09,0,0,1,325,117c.56,2.78,1,5.58,1.34,8.38.2,1.39.29,2.81.44,4.2s.31,2.8.35,4.2c.11,2.82.3,5.6.24,8.4,0,1.4,0,2.79,0,4.18s-.14,2.79-.22,4.18c-.1,2.77-.48,5.54-.76,8.28s-.83,5.48-1.34,8.19c-.64-2.71-1.1-5.4-1.69-8.07s-1.1-5.32-1.76-7.95l-.93-3.93c-.32-1.3-.69-2.6-1-3.89-.64-2.59-1.41-5.15-2.15-7.69-1.54-5.07-3.19-10.06-5.1-14.92-.92-2.44-1.94-4.83-2.94-7.21-.49-1.2-1.08-2.36-1.61-3.53s-1.06-2.35-1.65-3.49A159.4,159.4,0,0,0,269.65,58c-15-13.66-32.58-24.8-51.39-34.1-9.4-4.67-19.14-8.86-29.12-12.75S169,3.75,158.41.49Z" transform="translate(0)"/>
    </g>
    <g id="leaves">
      <path class="cls-8" d="M58.51,157.27s-3.58,56.26,49.05,105.49,69.71,50.91,69.71,50.91-9-68.31-48.2-108.29C91.51,167.05,77.17,179.58,58.51,157.27Z" transform="translate(0)"/>
      <path class="cls-9" d="M73.52,256.88c45.48,45.69,102.8,64.14,113.9,67.4l.21-.07s-13.18-79.28-94.72-108.63C-7.23,179.53,6.21,153.79,9.17,139.87,11.78,127.55,4.8,150,1.36,166-.24,176.33-.3,181,.52,189,3.43,211.4,18,258.17,57.1,293.58c39.62,35.85,86.77,36.79,112.15,33.94C120.51,320.91,73.52,256.88,73.52,256.88Z" transform="translate(0)"/>
    </g>
  </g>
</svg>
